solid zone0
 facet normal -1 0 0
  outer loop
   vertex 4.25 -0.02 -1.3
   vertex 4.25 -0.2 -1.3
   vertex 4.25 -0.02 -1.15
  endloop
 endfacet
 facet normal -1 -0 0
  outer loop
   vertex 4.25 -0.02 -1.15
   vertex 4.25 -0.2 -1.3
   vertex 4.25 -0.2 -1.15
  endloop
 endfacet
 facet normal -1 0 0
  outer loop
   vertex 4.25 -0.02 -1.15
   vertex 4.25 0.16 -1.15
   vertex 4.25 -0.02 -1.3
  endloop
 endfacet
 facet normal -1 0 0
  outer loop
   vertex 4.25 -0.02 -1.3
   vertex 4.25 0.16 -1.15
   vertex 4.25 0.16 -1.3
  endloop
 endfacet
 facet normal -1 0 0
  outer loop
   vertex 4.25 0.16 -1.15
   vertex 4.25 0.34 -1.15
   vertex 4.25 0.16 -1.3
  endloop
 endfacet
 facet normal -1 0 0
  outer loop
   vertex 4.25 0.16 -1.3
   vertex 4.25 0.34 -1.15
   vertex 4.25 0.34 -1.3
  endloop
 endfacet
 facet normal -1 0 0
  outer loop
   vertex 4.25 0.34 -1.15
   vertex 4.25 0.52 -1.15
   vertex 4.25 0.34 -1.3
  endloop
 endfacet
 facet normal -1 0 0
  outer loop
   vertex 4.25 0.34 -1.3
   vertex 4.25 0.52 -1.15
   vertex 4.25 0.52 -1.3
  endloop
 endfacet
 facet normal -1 0 0
  outer loop
   vertex 4.25 0.52 -1.15
   vertex 4.25 0.7 -1.15
   vertex 4.25 0.52 -1.3
  endloop
 endfacet
 facet normal -1 0 0
  outer loop
   vertex 4.25 0.52 -1.3
   vertex 4.25 0.7 -1.15
   vertex 4.25 0.7 -1.3
  endloop
 endfacet
 facet normal -1 0 0
  outer loop
   vertex 4.25 -0.2 -1.15
   vertex 4.25 -0.2 -1
   vertex 4.25 -0.02 -1.15
  endloop
 endfacet
 facet normal -1 0 0
  outer loop
   vertex 4.25 -0.2 -1
   vertex 4.25 -0.02 -1
   vertex 4.25 -0.02 -1.15
  endloop
 endfacet
 facet normal -1 0 0
  outer loop
   vertex 4.25 -0.02 -1.15
   vertex 4.25 -0.02 -1
   vertex 4.25 0.16 -1.15
  endloop
 endfacet
 facet normal -1 0 0
  outer loop
   vertex 4.25 -0.02 -1
   vertex 4.25 0.16 -1
   vertex 4.25 0.16 -1.15
  endloop
 endfacet
 facet normal -1 0 0
  outer loop
   vertex 4.25 0.16 -1.15
   vertex 4.25 0.16 -1
   vertex 4.25 0.34 -1.15
  endloop
 endfacet
 facet normal -1 0 0
  outer loop
   vertex 4.25 0.16 -1
   vertex 4.25 0.34 -1
   vertex 4.25 0.34 -1.15
  endloop
 endfacet
 facet normal -1 0 0
  outer loop
   vertex 4.25 0.34 -1.15
   vertex 4.25 0.34 -1
   vertex 4.25 0.52 -1.15
  endloop
 endfacet
 facet normal -1 0 0
  outer loop
   vertex 4.25 0.34 -1
   vertex 4.25 0.52 -1
   vertex 4.25 0.52 -1.15
  endloop
 endfacet
 facet normal -1 0 0
  outer loop
   vertex 4.25 0.52 -1.15
   vertex 4.25 0.52 -1
   vertex 4.25 0.7 -1.15
  endloop
 endfacet
 facet normal -1 0 0
  outer loop
   vertex 4.25 0.52 -1
   vertex 4.25 0.7 -1
   vertex 4.25 0.7 -1.15
  endloop
 endfacet
 facet normal -1 0 0
  outer loop
   vertex 4.25 -0.2 -1
   vertex 4.25 -0.2 -0.85
   vertex 4.25 -0.02 -1
  endloop
 endfacet
 facet normal -1 0 0
  outer loop
   vertex 4.25 -0.2 -0.85
   vertex 4.25 -0.02 -0.85
   vertex 4.25 -0.02 -1
  endloop
 endfacet
 facet normal -1 0 0
  outer loop
   vertex 4.25 -0.02 -1
   vertex 4.25 -0.02 -0.85
   vertex 4.25 0.16 -1
  endloop
 endfacet
 facet normal -1 0 0
  outer loop
   vertex 4.25 -0.02 -0.85
   vertex 4.25 0.16 -0.85
   vertex 4.25 0.16 -1
  endloop
 endfacet
 facet normal -1 0 0
  outer loop
   vertex 4.25 0.16 -1
   vertex 4.25 0.16 -0.85
   vertex 4.25 0.34 -1
  endloop
 endfacet
 facet normal -1 0 0
  outer loop
   vertex 4.25 0.16 -0.85
   vertex 4.25 0.34 -0.85
   vertex 4.25 0.34 -1
  endloop
 endfacet
 facet normal -1 0 0
  outer loop
   vertex 4.25 0.34 -1
   vertex 4.25 0.34 -0.85
   vertex 4.25 0.52 -1
  endloop
 endfacet
 facet normal -1 0 0
  outer loop
   vertex 4.25 0.34 -0.85
   vertex 4.25 0.52 -0.85
   vertex 4.25 0.52 -1
  endloop
 endfacet
 facet normal -1 0 0
  outer loop
   vertex 4.25 0.52 -1
   vertex 4.25 0.52 -0.85
   vertex 4.25 0.7 -1
  endloop
 endfacet
 facet normal -1 0 0
  outer loop
   vertex 4.25 0.52 -0.85
   vertex 4.25 0.7 -0.85
   vertex 4.25 0.7 -1
  endloop
 endfacet
 facet normal -1 0 0
  outer loop
   vertex 4.25 -0.2 -0.85
   vertex 4.25 -0.2 -0.7
   vertex 4.25 -0.02 -0.85
  endloop
 endfacet
 facet normal -1 0 0
  outer loop
   vertex 4.25 -0.2 -0.7
   vertex 4.25 -0.02 -0.7
   vertex 4.25 -0.02 -0.85
  endloop
 endfacet
 facet normal -1 0 0
  outer loop
   vertex 4.25 -0.02 -0.85
   vertex 4.25 -0.02 -0.7
   vertex 4.25 0.16 -0.85
  endloop
 endfacet
 facet normal -1 0 0
  outer loop
   vertex 4.25 -0.02 -0.7
   vertex 4.25 0.16 -0.7
   vertex 4.25 0.16 -0.85
  endloop
 endfacet
 facet normal -1 0 0
  outer loop
   vertex 4.25 0.16 -0.85
   vertex 4.25 0.16 -0.7
   vertex 4.25 0.34 -0.85
  endloop
 endfacet
 facet normal -1 0 0
  outer loop
   vertex 4.25 0.16 -0.7
   vertex 4.25 0.34 -0.7
   vertex 4.25 0.34 -0.85
  endloop
 endfacet
 facet normal -1 0 0
  outer loop
   vertex 4.25 0.34 -0.85
   vertex 4.25 0.34 -0.7
   vertex 4.25 0.52 -0.85
  endloop
 endfacet
 facet normal -1 0 0
  outer loop
   vertex 4.25 0.34 -0.7
   vertex 4.25 0.52 -0.7
   vertex 4.25 0.52 -0.85
  endloop
 endfacet
 facet normal -1 0 0
  outer loop
   vertex 4.25 0.52 -0.85
   vertex 4.25 0.52 -0.7
   vertex 4.25 0.7 -0.85
  endloop
 endfacet
 facet normal -1 0 0
  outer loop
   vertex 4.25 0.52 -0.7
   vertex 4.25 0.7 -0.7
   vertex 4.25 0.7 -0.85
  endloop
 endfacet
 facet normal -1 0 0
  outer loop
   vertex 4.25 -0.2 -0.7
   vertex 4.25 -0.2 -0.55
   vertex 4.25 -0.02 -0.7
  endloop
 endfacet
 facet normal -1 0 0
  outer loop
   vertex 4.25 -0.2 -0.55
   vertex 4.25 -0.02 -0.55
   vertex 4.25 -0.02 -0.7
  endloop
 endfacet
 facet normal -1 0 0
  outer loop
   vertex 4.25 -0.02 -0.7
   vertex 4.25 -0.02 -0.55
   vertex 4.25 0.16 -0.7
  endloop
 endfacet
 facet normal -1 0 0
  outer loop
   vertex 4.25 -0.02 -0.55
   vertex 4.25 0.16 -0.55
   vertex 4.25 0.16 -0.7
  endloop
 endfacet
 facet normal -1 0 0
  outer loop
   vertex 4.25 0.16 -0.7
   vertex 4.25 0.16 -0.55
   vertex 4.25 0.34 -0.7
  endloop
 endfacet
 facet normal -1 0 0
  outer loop
   vertex 4.25 0.16 -0.55
   vertex 4.25 0.34 -0.55
   vertex 4.25 0.34 -0.7
  endloop
 endfacet
 facet normal -1 0 0
  outer loop
   vertex 4.25 0.34 -0.7
   vertex 4.25 0.34 -0.55
   vertex 4.25 0.52 -0.7
  endloop
 endfacet
 facet normal -1 0 0
  outer loop
   vertex 4.25 0.34 -0.55
   vertex 4.25 0.52 -0.55
   vertex 4.25 0.52 -0.7
  endloop
 endfacet
 facet normal -1 0 0
  outer loop
   vertex 4.25 0.52 -0.7
   vertex 4.25 0.52 -0.55
   vertex 4.25 0.7 -0.7
  endloop
 endfacet
 facet normal -1 0 0
  outer loop
   vertex 4.25 0.52 -0.55
   vertex 4.25 0.7 -0.55
   vertex 4.25 0.7 -0.7
  endloop
 endfacet
 facet normal -1 0 0
  outer loop
   vertex 4.25 -0.2 -0.55
   vertex 4.25 -0.2 -0.4
   vertex 4.25 -0.02 -0.55
  endloop
 endfacet
 facet normal -1 0 0
  outer loop
   vertex 4.25 -0.2 -0.4
   vertex 4.25 -0.02 -0.4
   vertex 4.25 -0.02 -0.55
  endloop
 endfacet
 facet normal -1 0 0
  outer loop
   vertex 4.25 -0.02 -0.55
   vertex 4.25 -0.02 -0.4
   vertex 4.25 0.16 -0.55
  endloop
 endfacet
 facet normal -1 0 0
  outer loop
   vertex 4.25 -0.02 -0.4
   vertex 4.25 0.16 -0.4
   vertex 4.25 0.16 -0.55
  endloop
 endfacet
 facet normal -1 0 0
  outer loop
   vertex 4.25 0.16 -0.55
   vertex 4.25 0.16 -0.4
   vertex 4.25 0.34 -0.55
  endloop
 endfacet
 facet normal -1 0 0
  outer loop
   vertex 4.25 0.16 -0.4
   vertex 4.25 0.34 -0.4
   vertex 4.25 0.34 -0.55
  endloop
 endfacet
 facet normal -1 0 0
  outer loop
   vertex 4.25 0.34 -0.55
   vertex 4.25 0.34 -0.4
   vertex 4.25 0.52 -0.55
  endloop
 endfacet
 facet normal -1 0 0
  outer loop
   vertex 4.25 0.34 -0.4
   vertex 4.25 0.52 -0.4
   vertex 4.25 0.52 -0.55
  endloop
 endfacet
 facet normal -1 0 0
  outer loop
   vertex 4.25 0.52 -0.55
   vertex 4.25 0.52 -0.4
   vertex 4.25 0.7 -0.55
  endloop
 endfacet
 facet normal -1 0 0
  outer loop
   vertex 4.25 0.52 -0.4
   vertex 4.25 0.7 -0.4
   vertex 4.25 0.7 -0.55
  endloop
 endfacet
 facet normal -1 0 0
  outer loop
   vertex 4.25 -0.2 -0.4
   vertex 4.25 -0.2 -0.25
   vertex 4.25 -0.02 -0.4
  endloop
 endfacet
 facet normal -1 0 0
  outer loop
   vertex 4.25 -0.2 -0.25
   vertex 4.25 -0.02 -0.25
   vertex 4.25 -0.02 -0.4
  endloop
 endfacet
 facet normal -1 0 0
  outer loop
   vertex 4.25 -0.02 -0.4
   vertex 4.25 -0.02 -0.25
   vertex 4.25 0.16 -0.4
  endloop
 endfacet
 facet normal -1 0 0
  outer loop
   vertex 4.25 -0.02 -0.25
   vertex 4.25 0.16 -0.25
   vertex 4.25 0.16 -0.4
  endloop
 endfacet
 facet normal -1 0 0
  outer loop
   vertex 4.25 0.16 -0.4
   vertex 4.25 0.16 -0.25
   vertex 4.25 0.34 -0.4
  endloop
 endfacet
 facet normal -1 0 0
  outer loop
   vertex 4.25 0.16 -0.25
   vertex 4.25 0.34 -0.25
   vertex 4.25 0.34 -0.4
  endloop
 endfacet
 facet normal -1 0 0
  outer loop
   vertex 4.25 0.34 -0.4
   vertex 4.25 0.34 -0.25
   vertex 4.25 0.52 -0.4
  endloop
 endfacet
 facet normal -1 0 0
  outer loop
   vertex 4.25 0.34 -0.25
   vertex 4.25 0.52 -0.25
   vertex 4.25 0.52 -0.4
  endloop
 endfacet
 facet normal -1 0 0
  outer loop
   vertex 4.25 0.52 -0.4
   vertex 4.25 0.52 -0.25
   vertex 4.25 0.7 -0.4
  endloop
 endfacet
 facet normal -1 0 0
  outer loop
   vertex 4.25 0.52 -0.25
   vertex 4.25 0.7 -0.25
   vertex 4.25 0.7 -0.4
  endloop
 endfacet
 facet normal -1 0 0
  outer loop
   vertex 4.25 -0.2 -0.25
   vertex 4.25 -0.2 -0.1
   vertex 4.25 -0.02 -0.25
  endloop
 endfacet
 facet normal -1 0 0
  outer loop
   vertex 4.25 -0.2 -0.1
   vertex 4.25 -0.02 -0.1
   vertex 4.25 -0.02 -0.25
  endloop
 endfacet
 facet normal -1 0 0
  outer loop
   vertex 4.25 -0.02 -0.25
   vertex 4.25 -0.02 -0.1
   vertex 4.25 0.16 -0.25
  endloop
 endfacet
 facet normal -1 0 0
  outer loop
   vertex 4.25 -0.02 -0.1
   vertex 4.25 0.16 -0.1
   vertex 4.25 0.16 -0.25
  endloop
 endfacet
 facet normal -1 0 0
  outer loop
   vertex 4.25 0.16 -0.25
   vertex 4.25 0.16 -0.1
   vertex 4.25 0.34 -0.25
  endloop
 endfacet
 facet normal -1 0 0
  outer loop
   vertex 4.25 0.16 -0.1
   vertex 4.25 0.34 -0.1
   vertex 4.25 0.34 -0.25
  endloop
 endfacet
 facet normal -1 0 0
  outer loop
   vertex 4.25 0.34 -0.25
   vertex 4.25 0.34 -0.1
   vertex 4.25 0.52 -0.25
  endloop
 endfacet
 facet normal -1 0 0
  outer loop
   vertex 4.25 0.34 -0.1
   vertex 4.25 0.52 -0.1
   vertex 4.25 0.52 -0.25
  endloop
 endfacet
 facet normal -1 0 0
  outer loop
   vertex 4.25 0.52 -0.25
   vertex 4.25 0.52 -0.1
   vertex 4.25 0.7 -0.25
  endloop
 endfacet
 facet normal -1 0 0
  outer loop
   vertex 4.25 0.52 -0.1
   vertex 4.25 0.7 -0.1
   vertex 4.25 0.7 -0.25
  endloop
 endfacet
 facet normal -1 0 0
  outer loop
   vertex 4.25 -0.2 -0.1
   vertex 4.25 -0.2 0.05
   vertex 4.25 -0.02 -0.1
  endloop
 endfacet
 facet normal -1 0 0
  outer loop
   vertex 4.25 -0.2 0.05
   vertex 4.25 -0.02 0.05
   vertex 4.25 -0.02 -0.1
  endloop
 endfacet
 facet normal -1 0 0
  outer loop
   vertex 4.25 -0.02 -0.1
   vertex 4.25 -0.02 0.05
   vertex 4.25 0.16 -0.1
  endloop
 endfacet
 facet normal -1 0 0
  outer loop
   vertex 4.25 -0.02 0.05
   vertex 4.25 0.16 0.05
   vertex 4.25 0.16 -0.1
  endloop
 endfacet
 facet normal -1 0 0
  outer loop
   vertex 4.25 0.16 -0.1
   vertex 4.25 0.16 0.05
   vertex 4.25 0.34 -0.1
  endloop
 endfacet
 facet normal -1 0 0
  outer loop
   vertex 4.25 0.16 0.05
   vertex 4.25 0.34 0.05
   vertex 4.25 0.34 -0.1
  endloop
 endfacet
 facet normal -1 0 0
  outer loop
   vertex 4.25 0.34 -0.1
   vertex 4.25 0.34 0.05
   vertex 4.25 0.52 -0.1
  endloop
 endfacet
 facet normal -1 0 0
  outer loop
   vertex 4.25 0.34 0.05
   vertex 4.25 0.52 0.05
   vertex 4.25 0.52 -0.1
  endloop
 endfacet
 facet normal -1 0 0
  outer loop
   vertex 4.25 0.52 -0.1
   vertex 4.25 0.52 0.05
   vertex 4.25 0.7 -0.1
  endloop
 endfacet
 facet normal -1 0 0
  outer loop
   vertex 4.25 0.52 0.05
   vertex 4.25 0.7 0.05
   vertex 4.25 0.7 -0.1
  endloop
 endfacet
 facet normal -1 0 0
  outer loop
   vertex 4.25 -0.2 0.05
   vertex 4.25 -0.2 0.2
   vertex 4.25 -0.02 0.05
  endloop
 endfacet
 facet normal -1 0 0
  outer loop
   vertex 4.25 -0.2 0.2
   vertex 4.25 -0.02 0.2
   vertex 4.25 -0.02 0.05
  endloop
 endfacet
 facet normal -1 0 0
  outer loop
   vertex 4.25 -0.02 0.05
   vertex 4.25 -0.02 0.2
   vertex 4.25 0.16 0.05
  endloop
 endfacet
 facet normal -1 0 0
  outer loop
   vertex 4.25 -0.02 0.2
   vertex 4.25 0.16 0.2
   vertex 4.25 0.16 0.05
  endloop
 endfacet
 facet normal -1 0 0
  outer loop
   vertex 4.25 0.16 0.05
   vertex 4.25 0.16 0.2
   vertex 4.25 0.34 0.05
  endloop
 endfacet
 facet normal -1 0 0
  outer loop
   vertex 4.25 0.16 0.2
   vertex 4.25 0.34 0.2
   vertex 4.25 0.34 0.05
  endloop
 endfacet
 facet normal -1 0 0
  outer loop
   vertex 4.25 0.34 0.05
   vertex 4.25 0.34 0.2
   vertex 4.25 0.52 0.05
  endloop
 endfacet
 facet normal -1 0 0
  outer loop
   vertex 4.25 0.34 0.2
   vertex 4.25 0.52 0.2
   vertex 4.25 0.52 0.05
  endloop
 endfacet
 facet normal -1 0 0
  outer loop
   vertex 4.25 0.52 0.05
   vertex 4.25 0.52 0.2
   vertex 4.25 0.7 0.05
  endloop
 endfacet
 facet normal -1 0 0
  outer loop
   vertex 4.25 0.52 0.2
   vertex 4.25 0.7 0.2
   vertex 4.25 0.7 0.05
  endloop
 endfacet
 facet normal -1 0 0
  outer loop
   vertex 4.25 0.7 -1.15
   vertex 4.25 0.85 -1.15
   vertex 4.25 0.7 -1.3
  endloop
 endfacet
 facet normal -1 0 0
  outer loop
   vertex 4.25 0.7 -1.3
   vertex 4.25 0.85 -1.15
   vertex 4.25 0.85 -1.3
  endloop
 endfacet
 facet normal -1 0 0
  outer loop
   vertex 4.25 0.85 -1.15
   vertex 4.25 1 -1.15
   vertex 4.25 0.85 -1.3
  endloop
 endfacet
 facet normal -1 0 0
  outer loop
   vertex 4.25 0.85 -1.3
   vertex 4.25 1 -1.15
   vertex 4.25 1 -1.3
  endloop
 endfacet
 facet normal -1 0 0
  outer loop
   vertex 4.25 1 -1.15
   vertex 4.25 1.15 -1.15
   vertex 4.25 1 -1.3
  endloop
 endfacet
 facet normal -1 0 0
  outer loop
   vertex 4.25 1 -1.3
   vertex 4.25 1.15 -1.15
   vertex 4.25 1.15 -1.3
  endloop
 endfacet
 facet normal -1 0 0
  outer loop
   vertex 4.25 1.15 -1.15
   vertex 4.25 1.3 -1.15
   vertex 4.25 1.15 -1.3
  endloop
 endfacet
 facet normal -1 0 0
  outer loop
   vertex 4.25 1.15 -1.3
   vertex 4.25 1.3 -1.15
   vertex 4.25 1.3 -1.3
  endloop
 endfacet
 facet normal -1 0 0
  outer loop
   vertex 4.25 1.3 -1.15
   vertex 4.25 1.45 -1.15
   vertex 4.25 1.3 -1.3
  endloop
 endfacet
 facet normal -1 0 0
  outer loop
   vertex 4.25 1.3 -1.3
   vertex 4.25 1.45 -1.15
   vertex 4.25 1.45 -1.3
  endloop
 endfacet
 facet normal -1 0 0
  outer loop
   vertex 4.25 1.45 -1.15
   vertex 4.25 1.6 -1.15
   vertex 4.25 1.45 -1.3
  endloop
 endfacet
 facet normal -1 0 0
  outer loop
   vertex 4.25 1.45 -1.3
   vertex 4.25 1.6 -1.15
   vertex 4.25 1.6 -1.3
  endloop
 endfacet
 facet normal -1 0 0
  outer loop
   vertex 4.25 1.6 -1.15
   vertex 4.25 1.75 -1.15
   vertex 4.25 1.6 -1.3
  endloop
 endfacet
 facet normal -1 0 0
  outer loop
   vertex 4.25 1.6 -1.3
   vertex 4.25 1.75 -1.15
   vertex 4.25 1.75 -1.3
  endloop
 endfacet
 facet normal -1 0 0
  outer loop
   vertex 4.25 1.75 -1.15
   vertex 4.25 1.9 -1.15
   vertex 4.25 1.75 -1.3
  endloop
 endfacet
 facet normal -1 0 0
  outer loop
   vertex 4.25 1.75 -1.3
   vertex 4.25 1.9 -1.15
   vertex 4.25 1.9 -1.3
  endloop
 endfacet
 facet normal -1 0 0
  outer loop
   vertex 4.25 1.9 -1.15
   vertex 4.25 2.05 -1.15
   vertex 4.25 1.9 -1.3
  endloop
 endfacet
 facet normal -1 0 0
  outer loop
   vertex 4.25 1.9 -1.3
   vertex 4.25 2.05 -1.15
   vertex 4.25 2.05 -1.3
  endloop
 endfacet
 facet normal -1 0 0
  outer loop
   vertex 4.25 2.05 -1.15
   vertex 4.25 2.2 -1.15
   vertex 4.25 2.05 -1.3
  endloop
 endfacet
 facet normal -1 0 0
  outer loop
   vertex 4.25 2.05 -1.3
   vertex 4.25 2.2 -1.15
   vertex 4.25 2.2 -1.3
  endloop
 endfacet
 facet normal -1 0 0
  outer loop
   vertex 4.25 0.7 -1
   vertex 4.25 0.85 -1
   vertex 4.25 0.7 -1.15
  endloop
 endfacet
 facet normal -1 0 0
  outer loop
   vertex 4.25 0.7 -1.15
   vertex 4.25 0.85 -1
   vertex 4.25 0.85 -1.15
  endloop
 endfacet
 facet normal -1 0 0
  outer loop
   vertex 4.25 0.85 -1.15
   vertex 4.25 0.85 -1
   vertex 4.25 1 -1.15
  endloop
 endfacet
 facet normal -1 0 0
  outer loop
   vertex 4.25 0.85 -1
   vertex 4.25 1 -1
   vertex 4.25 1 -1.15
  endloop
 endfacet
 facet normal -1 0 0
  outer loop
   vertex 4.25 1 -1.15
   vertex 4.25 1 -1
   vertex 4.25 1.15 -1.15
  endloop
 endfacet
 facet normal -1 0 0
  outer loop
   vertex 4.25 1 -1
   vertex 4.25 1.15 -1
   vertex 4.25 1.15 -1.15
  endloop
 endfacet
 facet normal -1 0 0
  outer loop
   vertex 4.25 1.15 -1.15
   vertex 4.25 1.15 -1
   vertex 4.25 1.3 -1.15
  endloop
 endfacet
 facet normal -1 0 0
  outer loop
   vertex 4.25 1.15 -1
   vertex 4.25 1.3 -1
   vertex 4.25 1.3 -1.15
  endloop
 endfacet
 facet normal -1 0 0
  outer loop
   vertex 4.25 1.3 -1.15
   vertex 4.25 1.3 -1
   vertex 4.25 1.45 -1.15
  endloop
 endfacet
 facet normal -1 0 0
  outer loop
   vertex 4.25 1.3 -1
   vertex 4.25 1.45 -1
   vertex 4.25 1.45 -1.15
  endloop
 endfacet
 facet normal -1 0 0
  outer loop
   vertex 4.25 1.45 -1.15
   vertex 4.25 1.45 -1
   vertex 4.25 1.6 -1.15
  endloop
 endfacet
 facet normal -1 0 0
  outer loop
   vertex 4.25 1.45 -1
   vertex 4.25 1.6 -1
   vertex 4.25 1.6 -1.15
  endloop
 endfacet
 facet normal -1 0 0
  outer loop
   vertex 4.25 1.6 -1.15
   vertex 4.25 1.6 -1
   vertex 4.25 1.75 -1.15
  endloop
 endfacet
 facet normal -1 0 0
  outer loop
   vertex 4.25 1.6 -1
   vertex 4.25 1.75 -1
   vertex 4.25 1.75 -1.15
  endloop
 endfacet
 facet normal -1 0 0
  outer loop
   vertex 4.25 1.75 -1.15
   vertex 4.25 1.75 -1
   vertex 4.25 1.9 -1.15
  endloop
 endfacet
 facet normal -1 0 0
  outer loop
   vertex 4.25 1.75 -1
   vertex 4.25 1.9 -1
   vertex 4.25 1.9 -1.15
  endloop
 endfacet
 facet normal -1 0 0
  outer loop
   vertex 4.25 1.9 -1.15
   vertex 4.25 1.9 -1
   vertex 4.25 2.05 -1.15
  endloop
 endfacet
 facet normal -1 0 0
  outer loop
   vertex 4.25 1.9 -1
   vertex 4.25 2.05 -1
   vertex 4.25 2.05 -1.15
  endloop
 endfacet
 facet normal -1 0 0
  outer loop
   vertex 4.25 2.05 -1.15
   vertex 4.25 2.05 -1
   vertex 4.25 2.2 -1.15
  endloop
 endfacet
 facet normal -1 0 0
  outer loop
   vertex 4.25 2.05 -1
   vertex 4.25 2.2 -1
   vertex 4.25 2.2 -1.15
  endloop
 endfacet
 facet normal -1 0 0
  outer loop
   vertex 4.25 0.7 -0.85
   vertex 4.25 0.85 -0.85
   vertex 4.25 0.7 -1
  endloop
 endfacet
 facet normal -1 0 0
  outer loop
   vertex 4.25 0.7 -1
   vertex 4.25 0.85 -0.85
   vertex 4.25 0.85 -1
  endloop
 endfacet
 facet normal -1 0 0
  outer loop
   vertex 4.25 0.85 -1
   vertex 4.25 0.85 -0.85
   vertex 4.25 1 -1
  endloop
 endfacet
 facet normal -1 0 0
  outer loop
   vertex 4.25 0.85 -0.85
   vertex 4.25 1 -0.85
   vertex 4.25 1 -1
  endloop
 endfacet
 facet normal -1 0 0
  outer loop
   vertex 4.25 1 -1
   vertex 4.25 1 -0.85
   vertex 4.25 1.15 -1
  endloop
 endfacet
 facet normal -1 0 0
  outer loop
   vertex 4.25 1 -0.85
   vertex 4.25 1.15 -0.85
   vertex 4.25 1.15 -1
  endloop
 endfacet
 facet normal -1 0 0
  outer loop
   vertex 4.25 1.15 -1
   vertex 4.25 1.15 -0.85
   vertex 4.25 1.3 -1
  endloop
 endfacet
 facet normal -1 0 0
  outer loop
   vertex 4.25 1.15 -0.85
   vertex 4.25 1.3 -0.85
   vertex 4.25 1.3 -1
  endloop
 endfacet
 facet normal -1 0 0
  outer loop
   vertex 4.25 1.3 -1
   vertex 4.25 1.3 -0.85
   vertex 4.25 1.45 -1
  endloop
 endfacet
 facet normal -1 0 0
  outer loop
   vertex 4.25 1.3 -0.85
   vertex 4.25 1.45 -0.85
   vertex 4.25 1.45 -1
  endloop
 endfacet
 facet normal -1 0 0
  outer loop
   vertex 4.25 1.45 -1
   vertex 4.25 1.45 -0.85
   vertex 4.25 1.6 -1
  endloop
 endfacet
 facet normal -1 0 0
  outer loop
   vertex 4.25 1.45 -0.85
   vertex 4.25 1.6 -0.85
   vertex 4.25 1.6 -1
  endloop
 endfacet
 facet normal -1 0 0
  outer loop
   vertex 4.25 1.6 -1
   vertex 4.25 1.6 -0.85
   vertex 4.25 1.75 -1
  endloop
 endfacet
 facet normal -1 0 0
  outer loop
   vertex 4.25 1.6 -0.85
   vertex 4.25 1.75 -0.85
   vertex 4.25 1.75 -1
  endloop
 endfacet
 facet normal -1 0 0
  outer loop
   vertex 4.25 1.75 -1
   vertex 4.25 1.75 -0.85
   vertex 4.25 1.9 -1
  endloop
 endfacet
 facet normal -1 0 0
  outer loop
   vertex 4.25 1.75 -0.85
   vertex 4.25 1.9 -0.85
   vertex 4.25 1.9 -1
  endloop
 endfacet
 facet normal -1 0 0
  outer loop
   vertex 4.25 1.9 -1
   vertex 4.25 1.9 -0.85
   vertex 4.25 2.05 -1
  endloop
 endfacet
 facet normal -1 0 0
  outer loop
   vertex 4.25 1.9 -0.85
   vertex 4.25 2.05 -0.85
   vertex 4.25 2.05 -1
  endloop
 endfacet
 facet normal -1 0 0
  outer loop
   vertex 4.25 2.05 -1
   vertex 4.25 2.05 -0.85
   vertex 4.25 2.2 -1
  endloop
 endfacet
 facet normal -1 0 0
  outer loop
   vertex 4.25 2.05 -0.85
   vertex 4.25 2.2 -0.85
   vertex 4.25 2.2 -1
  endloop
 endfacet
 facet normal -1 0 0
  outer loop
   vertex 4.25 0.7 -0.7
   vertex 4.25 0.85 -0.7
   vertex 4.25 0.7 -0.85
  endloop
 endfacet
 facet normal -1 0 0
  outer loop
   vertex 4.25 0.7 -0.85
   vertex 4.25 0.85 -0.7
   vertex 4.25 0.85 -0.85
  endloop
 endfacet
 facet normal -1 0 0
  outer loop
   vertex 4.25 0.85 -0.85
   vertex 4.25 0.85 -0.7
   vertex 4.25 1 -0.85
  endloop
 endfacet
 facet normal -1 0 0
  outer loop
   vertex 4.25 0.85 -0.7
   vertex 4.25 1 -0.7
   vertex 4.25 1 -0.85
  endloop
 endfacet
 facet normal -1 0 0
  outer loop
   vertex 4.25 1 -0.85
   vertex 4.25 1 -0.7
   vertex 4.25 1.15 -0.85
  endloop
 endfacet
 facet normal -1 0 0
  outer loop
   vertex 4.25 1 -0.7
   vertex 4.25 1.15 -0.7
   vertex 4.25 1.15 -0.85
  endloop
 endfacet
 facet normal -1 0 0
  outer loop
   vertex 4.25 1.15 -0.85
   vertex 4.25 1.15 -0.7
   vertex 4.25 1.3 -0.85
  endloop
 endfacet
 facet normal -1 0 0
  outer loop
   vertex 4.25 1.15 -0.7
   vertex 4.25 1.3 -0.7
   vertex 4.25 1.3 -0.85
  endloop
 endfacet
 facet normal -1 0 0
  outer loop
   vertex 4.25 1.3 -0.85
   vertex 4.25 1.3 -0.7
   vertex 4.25 1.45 -0.85
  endloop
 endfacet
 facet normal -1 0 0
  outer loop
   vertex 4.25 1.3 -0.7
   vertex 4.25 1.45 -0.7
   vertex 4.25 1.45 -0.85
  endloop
 endfacet
 facet normal -1 0 0
  outer loop
   vertex 4.25 1.45 -0.85
   vertex 4.25 1.45 -0.7
   vertex 4.25 1.6 -0.85
  endloop
 endfacet
 facet normal -1 0 0
  outer loop
   vertex 4.25 1.45 -0.7
   vertex 4.25 1.6 -0.7
   vertex 4.25 1.6 -0.85
  endloop
 endfacet
 facet normal -1 0 0
  outer loop
   vertex 4.25 1.6 -0.85
   vertex 4.25 1.6 -0.7
   vertex 4.25 1.75 -0.85
  endloop
 endfacet
 facet normal -1 0 0
  outer loop
   vertex 4.25 1.6 -0.7
   vertex 4.25 1.75 -0.7
   vertex 4.25 1.75 -0.85
  endloop
 endfacet
 facet normal -1 0 0
  outer loop
   vertex 4.25 1.75 -0.85
   vertex 4.25 1.75 -0.7
   vertex 4.25 1.9 -0.85
  endloop
 endfacet
 facet normal -1 0 0
  outer loop
   vertex 4.25 1.75 -0.7
   vertex 4.25 1.9 -0.7
   vertex 4.25 1.9 -0.85
  endloop
 endfacet
 facet normal -1 0 0
  outer loop
   vertex 4.25 1.9 -0.85
   vertex 4.25 1.9 -0.7
   vertex 4.25 2.05 -0.85
  endloop
 endfacet
 facet normal -1 0 0
  outer loop
   vertex 4.25 1.9 -0.7
   vertex 4.25 2.05 -0.7
   vertex 4.25 2.05 -0.85
  endloop
 endfacet
 facet normal -1 0 0
  outer loop
   vertex 4.25 2.05 -0.85
   vertex 4.25 2.05 -0.7
   vertex 4.25 2.2 -0.85
  endloop
 endfacet
 facet normal -1 0 0
  outer loop
   vertex 4.25 2.05 -0.7
   vertex 4.25 2.2 -0.7
   vertex 4.25 2.2 -0.85
  endloop
 endfacet
 facet normal -1 0 0
  outer loop
   vertex 4.25 0.7 -0.55
   vertex 4.25 0.85 -0.55
   vertex 4.25 0.7 -0.7
  endloop
 endfacet
 facet normal -1 0 0
  outer loop
   vertex 4.25 0.7 -0.7
   vertex 4.25 0.85 -0.55
   vertex 4.25 0.85 -0.7
  endloop
 endfacet
 facet normal -1 0 0
  outer loop
   vertex 4.25 0.85 -0.7
   vertex 4.25 0.85 -0.55
   vertex 4.25 1 -0.7
  endloop
 endfacet
 facet normal -1 0 0
  outer loop
   vertex 4.25 0.85 -0.55
   vertex 4.25 1 -0.55
   vertex 4.25 1 -0.7
  endloop
 endfacet
 facet normal -1 0 0
  outer loop
   vertex 4.25 1 -0.7
   vertex 4.25 1 -0.55
   vertex 4.25 1.15 -0.7
  endloop
 endfacet
 facet normal -1 0 0
  outer loop
   vertex 4.25 1 -0.55
   vertex 4.25 1.15 -0.55
   vertex 4.25 1.15 -0.7
  endloop
 endfacet
 facet normal -1 0 0
  outer loop
   vertex 4.25 1.15 -0.7
   vertex 4.25 1.15 -0.55
   vertex 4.25 1.3 -0.7
  endloop
 endfacet
 facet normal -1 0 0
  outer loop
   vertex 4.25 1.15 -0.55
   vertex 4.25 1.3 -0.55
   vertex 4.25 1.3 -0.7
  endloop
 endfacet
 facet normal -1 0 0
  outer loop
   vertex 4.25 1.3 -0.7
   vertex 4.25 1.3 -0.55
   vertex 4.25 1.45 -0.7
  endloop
 endfacet
 facet normal -1 0 0
  outer loop
   vertex 4.25 1.3 -0.55
   vertex 4.25 1.45 -0.55
   vertex 4.25 1.45 -0.7
  endloop
 endfacet
 facet normal -1 0 0
  outer loop
   vertex 4.25 1.45 -0.7
   vertex 4.25 1.45 -0.55
   vertex 4.25 1.6 -0.7
  endloop
 endfacet
 facet normal -1 0 0
  outer loop
   vertex 4.25 1.45 -0.55
   vertex 4.25 1.6 -0.55
   vertex 4.25 1.6 -0.7
  endloop
 endfacet
 facet normal -1 0 0
  outer loop
   vertex 4.25 1.6 -0.7
   vertex 4.25 1.6 -0.55
   vertex 4.25 1.75 -0.7
  endloop
 endfacet
 facet normal -1 0 0
  outer loop
   vertex 4.25 1.6 -0.55
   vertex 4.25 1.75 -0.55
   vertex 4.25 1.75 -0.7
  endloop
 endfacet
 facet normal -1 0 0
  outer loop
   vertex 4.25 1.75 -0.7
   vertex 4.25 1.75 -0.55
   vertex 4.25 1.9 -0.7
  endloop
 endfacet
 facet normal -1 0 0
  outer loop
   vertex 4.25 1.75 -0.55
   vertex 4.25 1.9 -0.55
   vertex 4.25 1.9 -0.7
  endloop
 endfacet
 facet normal -1 0 0
  outer loop
   vertex 4.25 1.9 -0.7
   vertex 4.25 1.9 -0.55
   vertex 4.25 2.05 -0.7
  endloop
 endfacet
 facet normal -1 0 0
  outer loop
   vertex 4.25 1.9 -0.55
   vertex 4.25 2.05 -0.55
   vertex 4.25 2.05 -0.7
  endloop
 endfacet
 facet normal -1 0 0
  outer loop
   vertex 4.25 2.05 -0.7
   vertex 4.25 2.05 -0.55
   vertex 4.25 2.2 -0.7
  endloop
 endfacet
 facet normal -1 0 0
  outer loop
   vertex 4.25 2.05 -0.55
   vertex 4.25 2.2 -0.55
   vertex 4.25 2.2 -0.7
  endloop
 endfacet
 facet normal -1 0 0
  outer loop
   vertex 4.25 0.7 -0.4
   vertex 4.25 0.85 -0.4
   vertex 4.25 0.7 -0.55
  endloop
 endfacet
 facet normal -1 0 0
  outer loop
   vertex 4.25 0.7 -0.55
   vertex 4.25 0.85 -0.4
   vertex 4.25 0.85 -0.55
  endloop
 endfacet
 facet normal -1 0 0
  outer loop
   vertex 4.25 0.85 -0.55
   vertex 4.25 0.85 -0.4
   vertex 4.25 1 -0.55
  endloop
 endfacet
 facet normal -1 0 0
  outer loop
   vertex 4.25 0.85 -0.4
   vertex 4.25 1 -0.4
   vertex 4.25 1 -0.55
  endloop
 endfacet
 facet normal -1 0 0
  outer loop
   vertex 4.25 1 -0.55
   vertex 4.25 1 -0.4
   vertex 4.25 1.15 -0.55
  endloop
 endfacet
 facet normal -1 0 0
  outer loop
   vertex 4.25 1 -0.4
   vertex 4.25 1.15 -0.4
   vertex 4.25 1.15 -0.55
  endloop
 endfacet
 facet normal -1 0 0
  outer loop
   vertex 4.25 1.15 -0.55
   vertex 4.25 1.15 -0.4
   vertex 4.25 1.3 -0.55
  endloop
 endfacet
 facet normal -1 0 0
  outer loop
   vertex 4.25 1.15 -0.4
   vertex 4.25 1.3 -0.4
   vertex 4.25 1.3 -0.55
  endloop
 endfacet
 facet normal -1 0 0
  outer loop
   vertex 4.25 1.3 -0.55
   vertex 4.25 1.3 -0.4
   vertex 4.25 1.45 -0.55
  endloop
 endfacet
 facet normal -1 0 0
  outer loop
   vertex 4.25 1.3 -0.4
   vertex 4.25 1.45 -0.4
   vertex 4.25 1.45 -0.55
  endloop
 endfacet
 facet normal -1 0 0
  outer loop
   vertex 4.25 1.45 -0.55
   vertex 4.25 1.45 -0.4
   vertex 4.25 1.6 -0.55
  endloop
 endfacet
 facet normal -1 0 0
  outer loop
   vertex 4.25 1.45 -0.4
   vertex 4.25 1.6 -0.4
   vertex 4.25 1.6 -0.55
  endloop
 endfacet
 facet normal -1 0 0
  outer loop
   vertex 4.25 1.6 -0.55
   vertex 4.25 1.6 -0.4
   vertex 4.25 1.75 -0.55
  endloop
 endfacet
 facet normal -1 0 0
  outer loop
   vertex 4.25 1.6 -0.4
   vertex 4.25 1.75 -0.4
   vertex 4.25 1.75 -0.55
  endloop
 endfacet
 facet normal -1 0 0
  outer loop
   vertex 4.25 1.75 -0.55
   vertex 4.25 1.75 -0.4
   vertex 4.25 1.9 -0.55
  endloop
 endfacet
 facet normal -1 0 0
  outer loop
   vertex 4.25 1.75 -0.4
   vertex 4.25 1.9 -0.4
   vertex 4.25 1.9 -0.55
  endloop
 endfacet
 facet normal -1 0 0
  outer loop
   vertex 4.25 1.9 -0.55
   vertex 4.25 1.9 -0.4
   vertex 4.25 2.05 -0.55
  endloop
 endfacet
 facet normal -1 0 0
  outer loop
   vertex 4.25 1.9 -0.4
   vertex 4.25 2.05 -0.4
   vertex 4.25 2.05 -0.55
  endloop
 endfacet
 facet normal -1 0 0
  outer loop
   vertex 4.25 2.05 -0.55
   vertex 4.25 2.05 -0.4
   vertex 4.25 2.2 -0.55
  endloop
 endfacet
 facet normal -1 0 0
  outer loop
   vertex 4.25 2.05 -0.4
   vertex 4.25 2.2 -0.4
   vertex 4.25 2.2 -0.55
  endloop
 endfacet
 facet normal -1 0 0
  outer loop
   vertex 4.25 0.7 -0.25
   vertex 4.25 0.85 -0.25
   vertex 4.25 0.7 -0.4
  endloop
 endfacet
 facet normal -1 0 0
  outer loop
   vertex 4.25 0.7 -0.4
   vertex 4.25 0.85 -0.25
   vertex 4.25 0.85 -0.4
  endloop
 endfacet
 facet normal -1 0 0
  outer loop
   vertex 4.25 0.85 -0.4
   vertex 4.25 0.85 -0.25
   vertex 4.25 1 -0.4
  endloop
 endfacet
 facet normal -1 0 0
  outer loop
   vertex 4.25 0.85 -0.25
   vertex 4.25 1 -0.25
   vertex 4.25 1 -0.4
  endloop
 endfacet
 facet normal -1 0 0
  outer loop
   vertex 4.25 1 -0.4
   vertex 4.25 1 -0.25
   vertex 4.25 1.15 -0.4
  endloop
 endfacet
 facet normal -1 0 0
  outer loop
   vertex 4.25 1 -0.25
   vertex 4.25 1.15 -0.25
   vertex 4.25 1.15 -0.4
  endloop
 endfacet
 facet normal -1 0 0
  outer loop
   vertex 4.25 1.15 -0.4
   vertex 4.25 1.15 -0.25
   vertex 4.25 1.3 -0.4
  endloop
 endfacet
 facet normal -1 0 0
  outer loop
   vertex 4.25 1.15 -0.25
   vertex 4.25 1.3 -0.25
   vertex 4.25 1.3 -0.4
  endloop
 endfacet
 facet normal -1 0 0
  outer loop
   vertex 4.25 1.3 -0.4
   vertex 4.25 1.3 -0.25
   vertex 4.25 1.45 -0.4
  endloop
 endfacet
 facet normal -1 0 0
  outer loop
   vertex 4.25 1.3 -0.25
   vertex 4.25 1.45 -0.25
   vertex 4.25 1.45 -0.4
  endloop
 endfacet
 facet normal -1 0 0
  outer loop
   vertex 4.25 1.45 -0.4
   vertex 4.25 1.45 -0.25
   vertex 4.25 1.6 -0.4
  endloop
 endfacet
 facet normal -1 0 0
  outer loop
   vertex 4.25 1.45 -0.25
   vertex 4.25 1.6 -0.25
   vertex 4.25 1.6 -0.4
  endloop
 endfacet
 facet normal -1 0 0
  outer loop
   vertex 4.25 1.6 -0.4
   vertex 4.25 1.6 -0.25
   vertex 4.25 1.75 -0.4
  endloop
 endfacet
 facet normal -1 0 0
  outer loop
   vertex 4.25 1.6 -0.25
   vertex 4.25 1.75 -0.25
   vertex 4.25 1.75 -0.4
  endloop
 endfacet
 facet normal -1 0 0
  outer loop
   vertex 4.25 1.75 -0.4
   vertex 4.25 1.75 -0.25
   vertex 4.25 1.9 -0.4
  endloop
 endfacet
 facet normal -1 0 0
  outer loop
   vertex 4.25 1.75 -0.25
   vertex 4.25 1.9 -0.25
   vertex 4.25 1.9 -0.4
  endloop
 endfacet
 facet normal -1 0 0
  outer loop
   vertex 4.25 1.9 -0.4
   vertex 4.25 1.9 -0.25
   vertex 4.25 2.05 -0.4
  endloop
 endfacet
 facet normal -1 0 0
  outer loop
   vertex 4.25 1.9 -0.25
   vertex 4.25 2.05 -0.25
   vertex 4.25 2.05 -0.4
  endloop
 endfacet
 facet normal -1 0 0
  outer loop
   vertex 4.25 2.05 -0.4
   vertex 4.25 2.05 -0.25
   vertex 4.25 2.2 -0.4
  endloop
 endfacet
 facet normal -1 0 0
  outer loop
   vertex 4.25 2.05 -0.25
   vertex 4.25 2.2 -0.25
   vertex 4.25 2.2 -0.4
  endloop
 endfacet
 facet normal -1 0 0
  outer loop
   vertex 4.25 0.7 -0.1
   vertex 4.25 0.85 -0.1
   vertex 4.25 0.7 -0.25
  endloop
 endfacet
 facet normal -1 0 0
  outer loop
   vertex 4.25 0.7 -0.25
   vertex 4.25 0.85 -0.1
   vertex 4.25 0.85 -0.25
  endloop
 endfacet
 facet normal -1 0 0
  outer loop
   vertex 4.25 0.85 -0.25
   vertex 4.25 0.85 -0.1
   vertex 4.25 1 -0.25
  endloop
 endfacet
 facet normal -1 0 0
  outer loop
   vertex 4.25 0.85 -0.1
   vertex 4.25 1 -0.1
   vertex 4.25 1 -0.25
  endloop
 endfacet
 facet normal -1 0 0
  outer loop
   vertex 4.25 1 -0.25
   vertex 4.25 1 -0.1
   vertex 4.25 1.15 -0.25
  endloop
 endfacet
 facet normal -1 0 0
  outer loop
   vertex 4.25 1 -0.1
   vertex 4.25 1.15 -0.1
   vertex 4.25 1.15 -0.25
  endloop
 endfacet
 facet normal -1 0 0
  outer loop
   vertex 4.25 1.15 -0.25
   vertex 4.25 1.15 -0.1
   vertex 4.25 1.3 -0.25
  endloop
 endfacet
 facet normal -1 0 0
  outer loop
   vertex 4.25 1.15 -0.1
   vertex 4.25 1.3 -0.1
   vertex 4.25 1.3 -0.25
  endloop
 endfacet
 facet normal -1 0 0
  outer loop
   vertex 4.25 1.3 -0.25
   vertex 4.25 1.3 -0.1
   vertex 4.25 1.45 -0.25
  endloop
 endfacet
 facet normal -1 0 0
  outer loop
   vertex 4.25 1.3 -0.1
   vertex 4.25 1.45 -0.1
   vertex 4.25 1.45 -0.25
  endloop
 endfacet
 facet normal -1 0 0
  outer loop
   vertex 4.25 1.45 -0.25
   vertex 4.25 1.45 -0.1
   vertex 4.25 1.6 -0.25
  endloop
 endfacet
 facet normal -1 0 0
  outer loop
   vertex 4.25 1.45 -0.1
   vertex 4.25 1.6 -0.1
   vertex 4.25 1.6 -0.25
  endloop
 endfacet
 facet normal -1 0 0
  outer loop
   vertex 4.25 1.6 -0.25
   vertex 4.25 1.6 -0.1
   vertex 4.25 1.75 -0.25
  endloop
 endfacet
 facet normal -1 0 0
  outer loop
   vertex 4.25 1.6 -0.1
   vertex 4.25 1.75 -0.1
   vertex 4.25 1.75 -0.25
  endloop
 endfacet
 facet normal -1 0 0
  outer loop
   vertex 4.25 1.75 -0.25
   vertex 4.25 1.75 -0.1
   vertex 4.25 1.9 -0.25
  endloop
 endfacet
 facet normal -1 0 0
  outer loop
   vertex 4.25 1.75 -0.1
   vertex 4.25 1.9 -0.1
   vertex 4.25 1.9 -0.25
  endloop
 endfacet
 facet normal -1 0 0
  outer loop
   vertex 4.25 1.9 -0.25
   vertex 4.25 1.9 -0.1
   vertex 4.25 2.05 -0.25
  endloop
 endfacet
 facet normal -1 0 0
  outer loop
   vertex 4.25 1.9 -0.1
   vertex 4.25 2.05 -0.1
   vertex 4.25 2.05 -0.25
  endloop
 endfacet
 facet normal -1 0 0
  outer loop
   vertex 4.25 2.05 -0.25
   vertex 4.25 2.05 -0.1
   vertex 4.25 2.2 -0.25
  endloop
 endfacet
 facet normal -1 0 0
  outer loop
   vertex 4.25 2.05 -0.1
   vertex 4.25 2.2 -0.1
   vertex 4.25 2.2 -0.25
  endloop
 endfacet
 facet normal -1 0 0
  outer loop
   vertex 4.25 0.7 0.05
   vertex 4.25 0.85 0.05
   vertex 4.25 0.7 -0.1
  endloop
 endfacet
 facet normal -1 0 0
  outer loop
   vertex 4.25 0.7 -0.1
   vertex 4.25 0.85 0.05
   vertex 4.25 0.85 -0.1
  endloop
 endfacet
 facet normal -1 0 0
  outer loop
   vertex 4.25 0.85 -0.1
   vertex 4.25 0.85 0.05
   vertex 4.25 1 -0.1
  endloop
 endfacet
 facet normal -1 0 0
  outer loop
   vertex 4.25 0.85 0.05
   vertex 4.25 1 0.05
   vertex 4.25 1 -0.1
  endloop
 endfacet
 facet normal -1 0 0
  outer loop
   vertex 4.25 1 -0.1
   vertex 4.25 1 0.05
   vertex 4.25 1.15 -0.1
  endloop
 endfacet
 facet normal -1 0 0
  outer loop
   vertex 4.25 1 0.05
   vertex 4.25 1.15 0.05
   vertex 4.25 1.15 -0.1
  endloop
 endfacet
 facet normal -1 0 0
  outer loop
   vertex 4.25 1.15 -0.1
   vertex 4.25 1.15 0.05
   vertex 4.25 1.3 -0.1
  endloop
 endfacet
 facet normal -1 0 0
  outer loop
   vertex 4.25 1.15 0.05
   vertex 4.25 1.3 0.05
   vertex 4.25 1.3 -0.1
  endloop
 endfacet
 facet normal -1 0 0
  outer loop
   vertex 4.25 1.3 -0.1
   vertex 4.25 1.3 0.05
   vertex 4.25 1.45 -0.1
  endloop
 endfacet
 facet normal -1 0 0
  outer loop
   vertex 4.25 1.3 0.05
   vertex 4.25 1.45 0.05
   vertex 4.25 1.45 -0.1
  endloop
 endfacet
 facet normal -1 0 0
  outer loop
   vertex 4.25 1.45 -0.1
   vertex 4.25 1.45 0.05
   vertex 4.25 1.6 -0.1
  endloop
 endfacet
 facet normal -1 0 0
  outer loop
   vertex 4.25 1.45 0.05
   vertex 4.25 1.6 0.05
   vertex 4.25 1.6 -0.1
  endloop
 endfacet
 facet normal -1 0 0
  outer loop
   vertex 4.25 1.6 -0.1
   vertex 4.25 1.6 0.05
   vertex 4.25 1.75 -0.1
  endloop
 endfacet
 facet normal -1 0 0
  outer loop
   vertex 4.25 1.6 0.05
   vertex 4.25 1.75 0.05
   vertex 4.25 1.75 -0.1
  endloop
 endfacet
 facet normal -1 0 0
  outer loop
   vertex 4.25 1.75 -0.1
   vertex 4.25 1.75 0.05
   vertex 4.25 1.9 -0.1
  endloop
 endfacet
 facet normal -1 0 0
  outer loop
   vertex 4.25 1.75 0.05
   vertex 4.25 1.9 0.05
   vertex 4.25 1.9 -0.1
  endloop
 endfacet
 facet normal -1 0 0
  outer loop
   vertex 4.25 1.9 -0.1
   vertex 4.25 1.9 0.05
   vertex 4.25 2.05 -0.1
  endloop
 endfacet
 facet normal -1 0 0
  outer loop
   vertex 4.25 1.9 0.05
   vertex 4.25 2.05 0.05
   vertex 4.25 2.05 -0.1
  endloop
 endfacet
 facet normal -1 0 0
  outer loop
   vertex 4.25 2.05 -0.1
   vertex 4.25 2.05 0.05
   vertex 4.25 2.2 -0.1
  endloop
 endfacet
 facet normal -1 0 0
  outer loop
   vertex 4.25 2.05 0.05
   vertex 4.25 2.2 0.05
   vertex 4.25 2.2 -0.1
  endloop
 endfacet
 facet normal -1 0 0
  outer loop
   vertex 4.25 0.7 0.2
   vertex 4.25 0.85 0.2
   vertex 4.25 0.7 0.05
  endloop
 endfacet
 facet normal -1 0 0
  outer loop
   vertex 4.25 0.7 0.05
   vertex 4.25 0.85 0.2
   vertex 4.25 0.85 0.05
  endloop
 endfacet
 facet normal -1 0 0
  outer loop
   vertex 4.25 0.85 0.05
   vertex 4.25 0.85 0.2
   vertex 4.25 1 0.05
  endloop
 endfacet
 facet normal -1 0 0
  outer loop
   vertex 4.25 0.85 0.2
   vertex 4.25 1 0.2
   vertex 4.25 1 0.05
  endloop
 endfacet
 facet normal -1 0 0
  outer loop
   vertex 4.25 1 0.05
   vertex 4.25 1 0.2
   vertex 4.25 1.15 0.05
  endloop
 endfacet
 facet normal -1 0 0
  outer loop
   vertex 4.25 1 0.2
   vertex 4.25 1.15 0.2
   vertex 4.25 1.15 0.05
  endloop
 endfacet
 facet normal -1 0 0
  outer loop
   vertex 4.25 1.15 0.05
   vertex 4.25 1.15 0.2
   vertex 4.25 1.3 0.05
  endloop
 endfacet
 facet normal -1 0 0
  outer loop
   vertex 4.25 1.15 0.2
   vertex 4.25 1.3 0.2
   vertex 4.25 1.3 0.05
  endloop
 endfacet
 facet normal -1 0 0
  outer loop
   vertex 4.25 1.3 0.05
   vertex 4.25 1.3 0.2
   vertex 4.25 1.45 0.05
  endloop
 endfacet
 facet normal -1 0 0
  outer loop
   vertex 4.25 1.3 0.2
   vertex 4.25 1.45 0.2
   vertex 4.25 1.45 0.05
  endloop
 endfacet
 facet normal -1 0 0
  outer loop
   vertex 4.25 1.45 0.05
   vertex 4.25 1.45 0.2
   vertex 4.25 1.6 0.05
  endloop
 endfacet
 facet normal -1 0 0
  outer loop
   vertex 4.25 1.45 0.2
   vertex 4.25 1.6 0.2
   vertex 4.25 1.6 0.05
  endloop
 endfacet
 facet normal -1 0 0
  outer loop
   vertex 4.25 1.6 0.05
   vertex 4.25 1.6 0.2
   vertex 4.25 1.75 0.05
  endloop
 endfacet
 facet normal -1 0 0
  outer loop
   vertex 4.25 1.6 0.2
   vertex 4.25 1.75 0.2
   vertex 4.25 1.75 0.05
  endloop
 endfacet
 facet normal -1 0 0
  outer loop
   vertex 4.25 1.75 0.05
   vertex 4.25 1.75 0.2
   vertex 4.25 1.9 0.05
  endloop
 endfacet
 facet normal -1 0 0
  outer loop
   vertex 4.25 1.75 0.2
   vertex 4.25 1.9 0.2
   vertex 4.25 1.9 0.05
  endloop
 endfacet
 facet normal -1 0 0
  outer loop
   vertex 4.25 1.9 0.05
   vertex 4.25 1.9 0.2
   vertex 4.25 2.05 0.05
  endloop
 endfacet
 facet normal -1 0 0
  outer loop
   vertex 4.25 1.9 0.2
   vertex 4.25 2.05 0.2
   vertex 4.25 2.05 0.05
  endloop
 endfacet
 facet normal -1 0 0
  outer loop
   vertex 4.25 2.05 0.05
   vertex 4.25 2.05 0.2
   vertex 4.25 2.2 0.05
  endloop
 endfacet
 facet normal -1 0 0
  outer loop
   vertex 4.25 2.05 0.2
   vertex 4.25 2.2 0.2
   vertex 4.25 2.2 0.05
  endloop
 endfacet
endsolid zone0
